<?xml version="1.0" encoding="UTF-8" standalone="no"?>
<!-- Created with Inkscape (http://www.inkscape.org/) -->

<svg
   width="600"
   height="600"
   viewBox="0 0 158.75 158.75"
   version="1.1"
   id="svg1"
   inkscape:version="1.4 (86a8ad7, 2024-10-11)"
   sodipodi:docname="HexSimple_2.svg"
   xmlns:inkscape="http://www.inkscape.org/namespaces/inkscape"
   xmlns:sodipodi="http://sodipodi.sourceforge.net/DTD/sodipodi-0.dtd"
   xmlns="http://www.w3.org/2000/svg"
   xmlns:svg="http://www.w3.org/2000/svg">
  <sodipodi:namedview
     id="namedview1"
     pagecolor="#000000"
     bordercolor="#000000"
     borderopacity="0.25"
     inkscape:showpageshadow="2"
     inkscape:pageopacity="0.0"
     inkscape:pagecheckerboard="0"
     inkscape:deskcolor="#d1d1d1"
     inkscape:document-units="mm"
     showguides="false"
     inkscape:zoom="1"
     inkscape:cx="396.5"
     inkscape:cy="407.5"
     inkscape:window-width="2560"
     inkscape:window-height="1369"
     inkscape:window-x="2552"
     inkscape:window-y="-8"
     inkscape:window-maximized="1"
     inkscape:current-layer="layer1" />
  <defs
     id="defs1" />
  <g
     inkscape:label="Layer 1"
     inkscape:groupmode="layer"
     id="layer1">
    <path
       sodipodi:type="star"
       style="display:inline;fill:#ffffff;fill-opacity:0;stroke:#ffffff;stroke-width:4.24618773;stroke-dasharray:none;stroke-opacity:1"
       id="path1"
       inkscape:flatsided="true"
       sodipodi:sides="6"
       sodipodi:cx="-139.4653"
       sodipodi:cy="13.488432"
       sodipodi:r1="32.019431"
       sodipodi:r2="16.074268"
       sodipodi:arg1="0.060861808"
       sodipodi:arg2="0.58446058"
       inkscape:rounded="0"
       inkscape:randomized="0"
       d="m -107.50515,15.43599 -17.66671,26.704521 -31.96015,-1.947558 -14.29344,-28.652079 17.66671,-26.704521 31.96015,1.947558 z"
       inkscape:transform-center-x="-1.293461"
       inkscape:transform-center-y="-4.8923654"
       transform="matrix(-0.13020164,-2.0136376,2.266893,-0.11565561,30.961374,-200.2029)" />
    <text
       xml:space="preserve"
       style="font-size:3.175px;text-align:start;writing-mode:lr-tb;direction:ltr;text-anchor:start;fill:#ffffff;fill-opacity:0;stroke:#ffffff;stroke-width:9.599;stroke-dasharray:none;stroke-opacity:1"
       x="32.321335"
       y="12.215939"
       id="text2"><tspan
         sodipodi:role="line"
         id="tspan2"
         style="fill:#ffffff;fill-opacity:0;stroke-width:9.599"
         x="32.321335"
         y="12.215939" /></text>
    <path
       d="m 133.01926,104.70376 q 0.23151,0.20739 0.38102,0.5209 0.14952,0.3135 0.14952,0.81028 0,0.49196 -0.17845,0.90193 -0.17846,0.40996 -0.50161,0.71382 -0.36173,0.33762 -0.85369,0.50161 -0.48714,0.15916 -1.07074,0.15916 -0.59807,0 -1.17684,-0.1447 -0.57878,-0.13987 -0.95016,-0.30868 v -1.00803 h 0.0724 q 0.40996,0.2701 0.96462,0.44855 0.55466,0.17846 1.07074,0.17846 0.30386,0 0.6463,-0.10129 0.34244,-0.10128 0.55466,-0.29903 0.22186,-0.21222 0.32797,-0.46785 0.11093,-0.25562 0.11093,-0.6463 0,-0.38585 -0.1254,-0.63665 -0.12058,-0.25562 -0.33762,-0.40032 -0.21704,-0.14952 -0.52572,-0.20257 -0.30868,-0.0579 -0.66559,-0.0579 h -0.43408 v -0.80064 h 0.33762 q 0.73311,0 1.16719,-0.30385 0.43891,-0.30868 0.43891,-0.89711 0,-0.26045 -0.11093,-0.45337 -0.11094,-0.19775 -0.30868,-0.32315 -0.2074,-0.1254 -0.44373,-0.17363 -0.23633,-0.0482 -0.53537,-0.0482 -0.4582,0 -0.97427,0.16398 -0.51608,0.16399 -0.97427,0.46302 h -0.0482 v -1.00803 q 0.34244,-0.16881 0.91157,-0.30868 0.57395,-0.1447 1.10932,-0.1447 0.52572,0 0.92604,0.0965 0.40032,0.0965 0.72347,0.30868 0.34726,0.23151 0.52572,0.55948 0.17845,0.32797 0.17845,0.76688 0,0.59807 -0.42443,1.04662 -0.41961,0.44372 -0.99357,0.55948 v 0.0675 q 0.23151,0.0386 0.53055,0.16399 0.29903,0.12058 0.50643,0.30386 z"
       id="text4"
       style="font-size:9.87777px;fill:#01ff14;stroke-width:0.5"
       aria-label="3" />
    <path
       d="m 81.896357,132.32538 h -1.065912 v 2.02089 h -0.926041 v -2.02089 h -3.438892 v -1.10932 l 3.477477,-4.05143 h 0.887456 v 4.38905 h 1.065912 z m -1.991953,-0.7717 v -3.24115 l -2.782946,3.24115 z"
       id="text4-52"
       style="font-size:9.87777px;stroke:#ffffff;stroke-width:0.5"
       aria-label="4" />
    <path
       d="m 30.904744,103.85647 q 0,0.5016 -0.183279,0.9598 -0.183279,0.4582 -0.501605,0.7717 -0.347266,0.33762 -0.829579,0.5209 -0.477489,0.17846 -1.109319,0.17846 -0.588422,0 -1.133436,-0.1254 -0.545014,-0.12058 -0.921218,-0.29422 v -1.01768 h 0.06752 q 0.395497,0.25081 0.926041,0.42926 0.530544,0.17364 1.041796,0.17364 0.342442,0 0.660769,-0.0965 0.32315,-0.0965 0.573952,-0.33762 0.212218,-0.20739 0.318327,-0.49678 0.110932,-0.28939 0.110932,-0.67041 0,-0.37138 -0.130225,-0.62701 -0.125401,-0.25563 -0.352088,-0.40997 -0.250803,-0.18328 -0.612538,-0.25562 -0.356911,-0.0772 -0.800639,-0.0772 -0.424436,0 -0.819932,0.0579 -0.390674,0.0579 -0.675239,0.11576 v -3.699341 h 4.321525 v 0.844048 h -3.39066 v 1.909963 q 0.207394,-0.0193 0.424435,-0.0289 0.217041,-0.01 0.376204,-0.01 0.583599,0 1.022504,0.10129 0.438905,0.0965 0.805462,0.34726 0.385851,0.26527 0.598069,0.68489 0.212217,0.41961 0.212217,1.05144 z"
       id="text4-2"
       style="font-size:9.87777px;fill:#1500ff;stroke-width:0.5"
       aria-label="5" />
    <path
       d="m 32.929799,54.588576 q 0,1.094851 -0.723469,1.789381 -0.718646,0.689708 -1.765266,0.689708 -0.530544,0 -0.964626,-0.163986 -0.434081,-0.163987 -0.766877,-0.487136 -0.41479,-0.40032 -0.641477,-1.061089 -0.221864,-0.660769 -0.221864,-1.591633 0,-0.95498 0.202572,-1.692919 0.207394,-0.737939 0.655945,-1.311891 0.424436,-0.545014 1.094851,-0.848871 0.670415,-0.30868 1.562694,-0.30868 0.284565,0 0.47749,0.02411 0.192925,0.02412 0.390674,0.08682 v 0.921218 h -0.04823 q -0.135047,-0.07235 -0.409966,-0.135048 -0.270095,-0.06752 -0.55466,-0.06752 -1.036973,0 -1.654333,0.651123 -0.617361,0.646299 -0.718647,1.750796 0.405143,-0.24598 0.795817,-0.371381 0.395496,-0.130225 0.911571,-0.130225 0.458198,0 0.805463,0.08682 0.352089,0.08199 0.718646,0.337619 0.424436,0.294211 0.636654,0.742762 0.21704,0.448551 0.21704,1.090027 z m -0.979095,0.03858 q 0,-0.448551 -0.135048,-0.742762 -0.130224,-0.294211 -0.434081,-0.511252 -0.221864,-0.15434 -0.49196,-0.202571 -0.270095,-0.04823 -0.564306,-0.04823 -0.409966,0 -0.762054,0.09646 -0.352089,0.09646 -0.72347,0.299034 -0.0096,0.106109 -0.01447,0.207395 -0.0048,0.09646 -0.0048,0.24598 0,0.762054 0.15434,1.205782 0.159163,0.438905 0.434081,0.694531 0.221864,0.212218 0.47749,0.313503 0.260449,0.09646 0.564307,0.09646 0.699353,0 1.099673,-0.424436 0.40032,-0.429258 0.40032,-1.229898 z"
       id="text4-6"
       style="font-size:9.87777px;stroke:#ffffff;stroke-width:0.5"
       aria-label="6" />
    <path
       d="m 134.11752,58.08083 h -4.86172 v -1.008035 q 0.50643,-0.434081 1.01286,-0.868163 0.51125,-0.434082 0.95016,-0.86334 0.92604,-0.897102 1.26848,-1.422824 0.34244,-0.530544 0.34244,-1.143081 0,-0.559484 -0.37138,-0.872987 -0.36656,-0.318327 -1.02733,-0.318327 -0.4389,0 -0.95015,0.154341 -0.51125,0.15434 -0.99839,0.472666 h -0.0482 v -1.012857 q 0.34244,-0.16881 0.91157,-0.30868 0.57395,-0.139871 1.10932,-0.139871 1.1045,0 1.7315,0.535367 0.62701,0.530545 0.62701,1.442116 0,0.409966 -0.10611,0.766878 -0.10128,0.352088 -0.30386,0.670415 -0.1881,0.299034 -0.44372,0.588422 -0.25081,0.289388 -0.61254,0.641476 -0.51608,0.506429 -1.06591,0.983919 -0.54984,0.472666 -1.02733,0.877809 h 3.86333 z"
       id="text4-8"
       style="font-size:9.87777px;stroke:#ffffff;stroke-width:0.5"
       aria-label="2" />
    <path
       d="m 83.302507,32.49271 h -3.887443 v -0.733116 h 1.495171 v -4.813483 h -1.495171 v -0.655946 q 0.303857,0 0.651123,-0.04823 0.347265,-0.05306 0.525721,-0.149518 0.221864,-0.120578 0.347265,-0.303857 0.130225,-0.188102 0.149517,-0.501605 h 0.747585 v 6.47264 h 1.466232 z"
       id="text4-5"
       style="font-size:9.87777px;fill:#ff0505;stroke-width:0.5"
       aria-label="1" />
  </g>
</svg>
